<?xml version="1.0" standalone="no"?>
<!DOCTYPE svg PUBLIC "-//W3C//DTD SVG 20010904//EN"
 "http://www.w3.org/TR/2001/REC-SVG-20010904/DTD/svg10.dtd">
<svg version="1.0" xmlns="http://www.w3.org/2000/svg"
 width="275.000000pt" height="183.000000pt" viewBox="0 0 275.000000 183.000000"
 preserveAspectRatio="xMidYMid meet">

<g transform="translate(0.000000,183.000000) scale(0.100000,-0.100000)"
fill="#000000" stroke="none">
<path d="M0 1633 l0 -198 1375 0 1375 0 0 198 0 197 -1375 0 -1375 0 0 -197z"/>
<path d="M883 1307 c4 -11 1 -17 -9 -17 -9 0 -12 5 -8 13 6 10 4 10 -7 0 -7
-7 -22 -13 -34 -13 -12 0 -30 -6 -40 -14 -10 -7 -26 -12 -34 -11 -9 1 -10 0
-3 -2 7 -3 10 -9 7 -14 -10 -15 7 -10 19 7 15 19 76 30 76 13 0 -7 3 -9 6 -6
4 3 14 2 23 -3 14 -7 17 -3 19 20 1 16 -3 32 -10 36 -8 5 -9 2 -5 -9z"/>
<path d="M945 1276 c43 -12 56 -39 36 -73 -10 -17 -10 -17 -11 0 0 9 -6 17
-12 17 -7 0 -23 3 -34 6 -17 4 -23 0 -28 -21 -8 -31 -34 -61 -44 -51 -3 4 -1
11 6 15 8 5 10 19 6 39 -5 27 -9 30 -25 22 -10 -6 -27 -10 -39 -10 -12 0 -18
-4 -15 -10 3 -5 1 -10 -4 -10 -6 0 -11 8 -11 18 0 10 -3 13 -8 6 -4 -6 -24
-14 -44 -18 -42 -8 -45 -13 -24 -41 8 -11 12 -24 9 -30 -2 -7 4 -18 13 -26 12
-9 15 -10 10 -1 -5 8 -1 12 13 12 10 0 22 -6 24 -12 4 -8 8 -4 12 10 8 23 20
29 29 13 4 -5 0 -12 -6 -14 -7 -3 -3 -6 9 -6 12 -1 24 -7 26 -13 4 -10 6 -10
6 0 1 6 8 12 16 12 8 0 15 5 15 11 0 5 -6 7 -12 3 -7 -4 -5 1 4 11 17 18 18
18 37 1 14 -13 20 -14 23 -5 3 10 6 10 12 1 4 -7 2 -12 -3 -12 -6 0 -11 -8
-11 -17 0 -12 3 -14 8 -6 4 7 29 13 55 15 37 2 47 7 47 21 0 9 4 17 9 17 5 0
18 3 28 6 15 6 14 3 -4 -15 -13 -12 -23 -25 -23 -28 0 -4 11 4 25 17 14 13 25
30 25 38 0 9 -3 13 -6 10 -3 -4 -14 2 -25 13 -10 10 -28 19 -39 19 -15 0 -20
7 -20 25 0 18 5 25 19 25 34 0 53 -12 67 -44 8 -19 13 -24 14 -13 0 29 -47 69
-78 66 -15 -2 -37 2 -49 9 -12 7 -32 12 -45 11 -16 0 -11 -4 17 -13z m-133
-129 c-2 -5 -12 -1 -23 9 -10 9 -16 20 -13 25 6 10 42 -23 36 -34z m99 10
c-13 -13 -26 -3 -16 12 3 6 11 8 17 5 6 -4 6 -10 -1 -17z m83 7 c6 -15 -14
-44 -31 -44 -14 0 -13 43 0 52 18 11 24 10 31 -8z m-214 -14 c0 -5 -4 -10 -10
-10 -5 0 -10 5 -10 10 0 6 5 10 10 10 6 0 10 -4 10 -10z m-58 -22 c-7 -7 -12
-8 -12 -2 0 14 12 26 19 19 2 -3 -1 -11 -7 -17z"/>
<path d="M960 1150 c0 -5 5 -10 10 -10 6 0 10 5 10 10 0 6 -4 10 -10 10 -5 0
-10 -4 -10 -10z"/>
<path d="M685 1245 c-26 -25 -31 -50 -15 -75 7 -11 8 -6 4 18 -4 21 -3 32 5
32 7 0 9 5 6 10 -3 6 0 10 8 10 8 0 17 7 21 15 8 22 -1 19 -29 -10z"/>
<path d="M873 1232 c1 -14 5 -18 11 -12 7 7 6 14 -1 21 -9 9 -12 7 -10 -9z"/>
<path d="M876 1114 c-9 -24 0 -29 18 -11 8 8 12 17 9 21 -11 10 -21 7 -27 -10z"/>
<path d="M539 1098 c0 -2 -2 -15 -3 -30 -2 -26 1 -28 35 -28 31 0 37 4 41 25
3 13 3 27 0 30 -5 5 -71 7 -73 3z"/>
<path d="M787 1080 c-3 -10 0 -21 7 -24 6 -2 -18 -5 -54 -5 l-66 -1 1 -67 0
-68 -35 1 c-31 0 -35 4 -38 30 -2 16 -8 34 -14 39 -7 7 -9 3 -5 -13 9 -36 -2
-52 -44 -69 -43 -17 -50 -40 -22 -69 14 -13 18 -14 22 -3 4 15 21 29 34 29 4
0 7 -13 7 -30 0 -23 -7 -32 -35 -46 -27 -13 -35 -22 -35 -43 0 -40 10 -44 37
-15 30 33 39 26 35 -30 -3 -36 -8 -46 -25 -49 -12 -2 -4 -5 18 -5 22 -1 36 2
30 6 -5 4 -10 30 -10 57 0 40 5 54 23 68 12 10 22 29 22 42 0 27 -27 42 -32
17 -3 -13 -5 -12 -10 6 -6 22 -4 23 35 20 37 -3 42 -6 40 -25 -2 -15 3 -23 12
-23 12 0 15 -19 15 -107 0 -74 -3 -103 -10 -93 -5 8 -10 10 -10 4 0 -6 10 -20
23 -32 l22 -21 -3 126 c-3 100 -1 124 10 121 10 -4 13 -35 13 -129 0 -71 4
-127 10 -131 17 -13 28 -9 16 6 -17 20 -11 248 7 254 9 3 12 -27 12 -127 0
-98 3 -131 13 -131 9 0 11 29 9 117 -2 109 -1 116 13 98 13 -15 15 -40 13
-108 -2 -48 -1 -87 2 -87 4 0 11 5 18 12 8 8 14 5 23 -15 13 -28 24 -34 34
-17 3 6 -1 10 -9 10 -9 0 -16 6 -16 14 0 8 -7 16 -15 20 -11 4 -15 22 -15 76
0 40 4 70 10 70 6 0 10 -23 10 -51 0 -28 7 -66 16 -85 9 -19 17 -34 18 -34 0
0 19 -7 41 -14 33 -12 44 -12 65 -1 51 27 61 47 62 131 1 136 7 124 -66 124
-60 0 -64 2 -68 25 -3 13 -1 22 3 19 5 -3 9 0 9 6 0 6 6 10 13 9 22 -3 40 1
34 7 -3 4 -2 15 3 25 7 12 6 20 -2 25 -6 4 -9 3 -5 -2 3 -5 -1 -20 -9 -34
l-15 -25 4 27 c2 15 -1 29 -7 31 -6 3 2 10 17 16 23 9 28 16 25 37 -3 30 -37
57 -45 36 -3 -6 -10 -9 -15 -6 -7 5 -8 2 -3 -5 4 -8 17 -10 31 -7 19 5 24 3
24 -14 0 -36 -30 -36 -61 -2 -16 18 -31 27 -35 21 -3 -6 1 -18 10 -28 20 -22
20 -31 0 -31 -9 0 -14 -6 -11 -12 2 -7 16 -12 31 -10 20 2 26 -2 26 -17 0 -27
-25 -33 -60 -13 -29 16 -30 20 -30 84 0 37 4 69 9 72 5 3 29 7 53 7 37 2 44 5
46 23 1 17 -1 18 -8 6 -8 -13 -10 -12 -10 3 0 9 -5 17 -11 17 -5 0 -7 -5 -4
-10 7 -12 -120 -9 -131 3 -14 13 -32 7 -37 -13z m154 -107 c13 -16 12 -17 -3
-4 -10 7 -18 15 -18 17 0 8 8 3 21 -13z m-181 -23 c0 10 3 11 8 4 4 -6 15 -10
24 -8 10 1 21 -2 24 -7 3 -5 2 -9 -3 -8 -4 1 -10 0 -13 -1 -16 -7 -58 -6 -54
2 3 4 0 8 -6 8 -6 0 -8 5 -4 11 4 8 9 7 15 -2 7 -11 9 -11 9 1z m210 -10 c0
-5 -4 -10 -9 -10 -5 0 -18 -3 -28 -6 -16 -6 -16 -5 2 9 23 19 35 21 35 7z
m-180 -45 c10 -12 8 -13 -10 -10 -12 2 -23 -2 -27 -10 -3 -8 -10 -15 -16 -15
-6 0 0 11 13 25 28 29 25 29 40 10z m-226 -11 c3 -8 2 -12 -3 -9 -5 3 -12 1
-16 -5 -4 -6 -11 -8 -16 -4 -5 3 -7 10 -3 15 3 5 10 7 15 4 5 -4 9 -1 9 4 0
16 7 13 14 -5z m36 6 c0 -5 -4 -10 -10 -10 -5 0 -10 5 -10 10 0 6 5 10 10 10
6 0 10 -4 10 -10z m30 0 c0 -5 -4 -10 -10 -10 -5 0 -10 5 -10 10 0 6 5 10 10
10 6 0 10 -4 10 -10z m180 -52 c0 -5 -20 -8 -45 -8 -25 0 -45 4 -45 9 0 5 20
9 45 8 25 -1 45 -5 45 -9z m100 2 c0 -5 -5 -10 -11 -10 -5 0 -7 5 -4 10 3 6 8
10 11 10 2 0 4 -4 4 -10z m90 -58 c0 -13 -12 -22 -22 -16 -10 6 -1 24 13 24 5
0 9 -4 9 -8z m56 -4 c0 -12 -36 -54 -36 -43 0 6 31 55 34 55 2 0 3 -6 2 -12z
m-98 -49 c17 -20 20 -29 11 -34 -7 -5 -10 -4 -5 3 3 6 -3 16 -14 22 -11 6 -20
18 -20 27 0 9 1 14 3 12 1 -2 12 -16 25 -30z m52 -33 c-4 -4 -6 -15 -3 -24 4
-9 2 -13 -4 -9 -6 4 -14 1 -16 -5 -4 -9 -6 -7 -6 3 -1 9 5 22 13 29 8 6 12 19
9 28 -4 14 -3 15 6 2 6 -9 6 -19 1 -24z m-77 -3 c-22 -17 -33 -16 -33 1 0 9
10 13 25 12 23 -1 24 -2 8 -13z m132 -3 c-3 -5 -13 -6 -21 -3 -12 4 -13 8 -3
14 15 9 32 2 24 -11z m-100 -20 c-3 -5 -12 -10 -18 -10 -7 0 -6 4 3 10 19 12
23 12 15 0z m69 -26 c3 -8 2 -12 -4 -9 -6 3 -10 10 -10 16 0 14 7 11 14 -7z
m-35 -56 c1 -5 -3 -8 -9 -8 -5 0 -10 12 -9 28 0 24 1 25 9 7 5 -11 9 -23 9
-27z m61 28 c0 -2 -9 -6 -20 -9 -11 -3 -18 -1 -14 4 5 9 34 13 34 5z"/>
<path d="M1013 1093 c-15 -5 -17 -23 -4 -23 5 0 11 7 15 15 3 8 4 15 3 14 -1
0 -8 -3 -14 -6z"/>
<path d="M1149 1095 c-4 -3 -4 -17 -1 -30 3 -21 10 -25 37 -25 24 0 35 -5 38
-17 2 -10 3 2 2 27 -2 44 -3 45 -36 48 -19 2 -37 0 -40 -3z m64 -24 c-2 -9
-16 -17 -31 -18 -26 -1 -26 -1 -4 11 12 7 20 14 17 17 -3 3 1 6 9 6 7 0 11 -7
9 -16z"/>
<path d="M746 1075 c4 -8 8 -15 10 -15 2 0 4 7 4 15 0 8 -4 15 -10 15 -5 0 -7
-7 -4 -15z"/>
<path d="M1021 1014 c6 -8 16 -11 23 -7 7 5 7 2 -1 -8 -7 -8 -11 -30 -11 -49
1 -19 -2 -44 -7 -55 -8 -19 -8 -19 8 -3 11 10 16 30 15 55 -1 21 2 45 6 54 5
12 1 18 -19 21 -20 4 -23 3 -14 -8z"/>
<path d="M1173 1013 c9 -2 23 -2 30 0 6 3 -1 5 -18 5 -16 0 -22 -2 -12 -5z"/>
<path d="M1212 957 c-2 -40 -5 -48 -19 -45 -12 2 -20 16 -24 43 l-6 40 -2 -36
c-1 -34 -3 -37 -41 -43 -35 -6 -40 -9 -40 -34 0 -26 2 -27 39 -24 35 4 40 1
44 -20 l4 -23 2 23 c2 38 35 24 39 -16 l3 -33 -30 16 c-17 8 -31 22 -31 30 0
9 -6 12 -15 9 -23 -9 -19 -57 6 -72 18 -11 20 -21 17 -73 -3 -58 -3 -59 24
-59 15 0 31 -7 36 -16 6 -11 8 1 6 37 -2 30 -1 49 2 42 4 -10 8 -10 18 -1 15
14 9 53 -10 69 -20 16 -17 35 9 70 l22 31 -22 17 c-16 13 -23 32 -26 67 l-3
49 -2 -48z m-67 -67 c3 -5 1 -10 -4 -10 -6 0 -11 5 -11 10 0 6 2 10 4 10 3 0
8 -4 11 -10z m56 -13 c-13 -13 -26 -3 -16 12 3 6 11 8 17 5 6 -4 6 -10 -1 -17z
m25 -14 c-10 -10 -19 5 -10 18 6 11 8 11 12 0 2 -7 1 -15 -2 -18z m-32 -119
c11 -4 16 -19 16 -50 0 -37 -3 -44 -20 -44 -17 0 -20 7 -20 50 0 28 2 50 4 50
2 0 11 -3 20 -6z"/>
<path d="M1011 856 c-11 -13 -5 -26 11 -26 5 0 7 4 4 9 -4 5 -1 11 6 13 8 3 9
6 1 11 -6 4 -16 1 -22 -7z"/>
<path d="M515 590 c-4 -6 17 -11 57 -12 l63 -1 -65 -7 -65 -7 68 -1 c60 -2 68
0 65 16 -3 13 -15 18 -60 20 -31 1 -59 -2 -63 -8z"/>
<path d="M1125 589 c-4 -5 20 -10 57 -11 l63 -1 -65 -7 -65 -7 65 -3 65 -3
-65 -7 -65 -7 68 -1 c65 -2 67 -1 67 22 0 15 -7 26 -17 29 -33 8 -102 6 -108
-4z"/>
<path d="M845 550 c3 -5 13 -10 21 -10 8 0 12 5 9 10 -3 6 -13 10 -21 10 -8 0
-12 -4 -9 -10z"/>
<path d="M537 543 c18 -2 50 -2 70 0 21 2 7 4 -32 4 -38 0 -55 -2 -38 -4z"/>
<path d="M0 205 l0 -205 1375 0 1375 0 0 205 0 205 -1375 0 -1375 0 0 -205z"/>
</g>
</svg>
